<svg aria-hidden="true" style="width:0;height:0;position:absolute;overflow:hidden" xmlns="http://www.w3.org/2000/svg"><defs><symbol id="icon-arrow-long-left" viewBox="0 0 20 20"><path d="M.75 10 6 4.5V8h13v4H6v3.5L.75 10z"/></symbol><symbol id="icon-arrow-long-right" viewBox="0 0 20 20"><path d="M14 15.5V12H1V8h13V4.5l5.25 5.5L14 15.5z"/></symbol><symbol id="icon-chevron-thin-left" viewBox="0 0 20 20"><path d="M13.891 17.418c.268.272.268.709 0 .979s-.701.271-.969 0l-7.83-7.908a.697.697 0 0 1 0-.979l7.83-7.908c.268-.27.701-.27.969 0s.268.709 0 .979L6.75 10l7.141 7.418z"/></symbol><symbol id="icon-chevron-thin-right" viewBox="0 0 20 20"><path d="M13.25 10 6.109 2.58a.697.697 0 0 1 0-.979.68.68 0 0 1 .969 0l7.83 7.908a.697.697 0 0 1 0 .979l-7.83 7.908c-.268.271-.701.27-.969 0s-.268-.707 0-.979L13.25 10z"/></symbol><symbol id="icon-emoji-happy" viewBox="0 0 20 20"><path d="M10 .4C4.698.4.4 4.698.4 10a9.6 9.6 0 1 0 19.2-.001C19.6 4.698 15.301.4 10 .4zm0 17.199A7.6 7.6 0 1 1 10 2.4a7.6 7.6 0 1 1 0 15.199zM7.501 9.75C8.329 9.75 9 8.967 9 8s-.672-1.75-1.5-1.75S6 7.033 6 8s.672 1.75 1.501 1.75zm4.999 0c.829 0 1.5-.783 1.5-1.75s-.672-1.75-1.5-1.75S11 7.034 11 8s.672 1.75 1.5 1.75zm1.841 1.586a.756.756 0 0 0-1.008.32c-.034.066-.869 1.593-3.332 1.593-2.451 0-3.291-1.513-3.333-1.592a.75.75 0 0 0-1.339.678c.05.099 1.248 2.414 4.672 2.414 3.425 0 4.621-2.316 4.67-2.415a.745.745 0 0 0-.33-.998z"/></symbol><symbol id="icon-heart" viewBox="0 0 20 20"><path d="M17.19 4.155c-1.672-1.534-4.383-1.534-6.055 0L10 5.197 8.864 4.155c-1.672-1.534-4.382-1.534-6.054 0-1.881 1.727-1.881 4.52 0 6.246L10 17l7.19-6.599c1.88-1.726 1.88-4.52 0-6.246z"/></symbol><symbol id="icon-home" viewBox="0 0 20 20"><path d="M18.672 11H17v6c0 .445-.194 1-1 1h-4v-6H8v6H4c-.806 0-1-.555-1-1v-6H1.328c-.598 0-.47-.324-.06-.748L9.292 2.22c.195-.202.451-.302.708-.312.257.01.513.109.708.312l8.023 8.031c.411.425.539.749-.059.749z"/></symbol><symbol id="icon-lock" viewBox="0 0 20 20"><path d="M15.8 8H14V5.6C14 2.703 12.665 1 10 1S6 2.703 6 5.6V8H4c-.553 0-1 .646-1 1.199V17c0 .549.428 1.139.951 1.307l1.197.387A7.731 7.731 0 0 0 7.1 19h5.8a7.68 7.68 0 0 0 1.951-.307l1.196-.387c.524-.167.953-.757.953-1.306V9.199C17 8.646 16.352 8 15.8 8zM12 8H8V5.199C8 3.754 8.797 3 10 3s2 .754 2 2.199V8z"/></symbol><symbol id="icon-mail" viewBox="0 0 20 20"><path d="m1.574 5.286 7.5 4.029c.252.135.578.199.906.199.328 0 .654-.064.906-.199l7.5-4.029c.489-.263.951-1.286.054-1.286H1.521c-.897 0-.435 1.023.053 1.286zm17.039 2.203-7.727 4.027c-.34.178-.578.199-.906.199s-.566-.021-.906-.199-7.133-3.739-7.688-4.028C.996 7.284 1 7.523 1 7.707V15c0 .42.566 1 1 1h16c.434 0 1-.58 1-1V7.708c0-.184.004-.423-.387-.219z"/></symbol><symbol id="icon-youtube" viewBox="0 0 20 20"><path d="M10 2.3C.172 2.3 0 3.174 0 10s.172 7.7 10 7.7 10-.874 10-7.7-.172-7.7-10-7.7zm3.205 8.034-4.49 2.096c-.393.182-.715-.022-.715-.456V8.026c0-.433.322-.638.715-.456l4.49 2.096c.393.184.393.484 0 .668z"/></symbol><symbol id="icon-cross" viewBox="0 0 32 32"><path d="M31.708 25.708 22 16l9.708-9.708a1 1 0 0 0 0-1.414L27.122.292a1 1 0 0 0-1.414-.001L16 9.999 6.292.291a.998.998 0 0 0-1.414.001L.292 4.878a1 1 0 0 0 0 1.414L10 16 .292 25.708a.999.999 0 0 0 0 1.414l4.586 4.586a1 1 0 0 0 1.414 0L16 22l9.708 9.708a1 1 0 0 0 1.414 0l4.586-4.586a.999.999 0 0 0 0-1.414z"/></symbol></defs></svg>